<svg id="Layer_1" enable-background="new 0 0 512.005 512.005" height="512" viewBox="0 0 512.005 512.005" width="512" xmlns="http://www.w3.org/2000/svg"><g><path d="m70.764 477.898c-3.033-7.708-11.744-11.497-19.451-8.463-7.709 3.035-11.498 11.743-8.463 19.452l.183.461c2.324 5.905 7.978 9.51 13.961 9.51 1.827 0 3.688-.336 5.49-1.046 7.709-3.035 11.498-11.743 8.463-19.452z"/><path d="m53.932 425.63-.21-.869c-1.94-8.054-10.048-13.007-18.096-11.07-8.054 1.94-13.011 10.042-11.07 18.096l.237.977c1.677 6.849 7.808 11.437 14.558 11.437 1.181 0 2.381-.141 3.579-.434 8.046-1.971 12.973-10.091 11.002-18.137z"/><path d="m26.593 329.379c.362.026.723.039 1.081.039 7.799 0 14.384-6.034 14.946-13.935l.068-.948c.588-8.264-5.635-15.438-13.898-16.026-8.278-.577-15.437 5.635-16.025 13.898l-.068.945c-.589 8.263 5.633 15.439 13.896 16.027z"/><path d="m33.213 271.864c1.152.271 2.303.4 3.438.4 6.807 0 12.97-4.665 14.591-11.578l.217-.924c1.892-8.065-3.113-16.137-11.179-18.029-8.064-1.892-16.137 3.113-18.028 11.178l-.217.924c-1.892 8.066 3.113 16.138 11.178 18.029z"/><path d="m47.864 215.838c1.316.357 2.638.528 3.939.528 6.604 0 12.653-4.395 14.467-11.073l.258-.954c2.151-8-2.591-16.229-10.592-18.38-7.997-2.15-16.229 2.592-18.379 10.592l-.238.879c-2.171 7.996 2.55 16.237 10.545 18.408z"/><path d="m64.594 128.75c-8.266-.77-15.559 5.299-16.323 13.548l-.082.852c-.818 8.244 5.202 15.59 13.445 16.408.504.05 1.004.074 1.499.074 7.618 0 14.141-5.78 14.909-13.52l.1-1.039c.767-8.249-5.3-15.557-13.548-16.323z"/><path d="m60.966 70.946c-8.238.87-14.212 8.253-13.342 16.492l.1.942c.812 7.705 7.32 13.428 14.898 13.428.525 0 1.058-.027 1.591-.083 8.239-.869 14.214-8.251 13.345-16.49l-.1-.947c-.869-8.239-8.246-14.213-16.492-13.342z"/><path d="m37.835 33.384c1.684 6.84 7.811 11.417 14.553 11.417 1.188 0 2.394-.142 3.599-.438 8.044-1.981 12.959-10.107 10.978-18.151l-.119-.488c-1.98-8.044-10.104-12.957-18.151-10.979-8.044 1.981-12.959 10.107-10.978 18.151z"/><path d="m422.046 231.244c-13.912-48.652-28.299-98.96-11.834-185.162.12-.629.185-1.255.225-1.878 6.909-6.046 13.117-12.976 18.431-20.704 4.694-6.826 2.966-16.165-3.86-20.859-6.826-4.693-16.165-2.966-20.858 3.861-15.285 22.229-40.681 35.499-67.934 35.499-27.14 0-52.477-13.188-67.776-35.279-2.802-4.045-7.409-6.459-12.331-6.459-4.921 0-9.529 2.414-12.331 6.459-15.301 22.091-40.638 35.279-67.777 35.279-27.253 0-52.648-13.271-67.934-35.499-4.692-6.825-14.032-8.556-20.858-3.861-6.826 4.694-8.555 14.033-3.86 20.859 5.326 7.746 11.552 14.69 18.481 20.746.032.707.097 1.417.233 2.133 16.375 86.018 2.006 136.268-11.892 184.863-12.556 43.907-25.539 89.31-13.449 156.241 6.241 34.556 12.246 61.291 37.827 115.883 2.552 5.444 7.954 8.639 13.593 8.639 2.132 0 4.298-.457 6.355-1.421 7.501-3.515 10.732-12.446 7.218-19.947-24.096-51.421-29.476-75.289-35.472-108.486-1.97-10.909-3.196-21.153-3.823-30.879 56.755 3.393 101.14 22.124 138.69 58.529v87.201c0 8.284 6.716 15 15 15s15-6.716 15-15v-86.97c35.71-32.785 81.307-52.883 138.831-61.172-.571 10.442-1.831 21.476-3.964 33.291-5.996 33.197-11.376 57.064-35.472 108.486-3.515 7.501-.283 16.432 7.219 19.947 2.058.964 4.223 1.421 6.354 1.421 5.639 0 11.042-3.195 13.593-8.639 25.582-54.593 31.586-81.328 37.827-115.883 12.088-66.931-.895-112.333-13.452-156.239zm-165.679 151.727c-41.827-38.121-92.407-58.384-154.012-61.759.65-10.542 1.975-20.535 3.751-30.21h299.036c.324 0 .641-.028.96-.048 1.633 8.885 2.882 18.041 3.581 27.64-62.677 8.388-113.074 29.544-153.316 64.377zm-80.366-310.969c30.43 0 59.218-12.199 80.108-33.337 20.89 21.138 49.677 33.337 80.107 33.337 14.086 0 27.811-2.615 40.564-7.511-10.979 79.127 3.501 129.817 16.422 175.002 2.06 7.201 4.096 14.336 6.011 21.511h-286.21c1.915-7.175 3.952-14.31 6.011-21.512 12.92-45.182 27.4-95.877 16.422-175.001 12.753 4.896 26.478 7.511 40.565 7.511z"/><circle cx="256.109" cy="221.002" r="15"/><path d="m460.692 469.435c-7.707-3.033-16.416.755-19.451 8.463l-.183.461c-3.035 7.708.754 16.417 8.463 19.452 1.804.71 3.662 1.046 5.49 1.046 5.983 0 11.637-3.605 13.961-9.51l.183-.461c3.035-7.708-.754-16.416-8.463-19.451z"/><path d="m476.378 413.691c-8.046-1.936-16.155 3.016-18.096 11.07l-.21.869c-1.971 8.046 2.956 16.167 11.002 18.137 1.198.293 2.398.434 3.579.434 6.75 0 12.881-4.588 14.558-11.437l.237-.977c1.941-8.054-3.016-16.156-11.07-18.096z"/><path d="m484.791 356.386c-8.233-.926-15.653 5.01-16.571 13.243l-.097.852-.006.054c-.941 8.23 4.971 15.639 13.201 16.581.577.066 1.149.098 1.717.098 7.523 0 14.018-5.67 14.894-13.324l.105-.933c.919-8.232-5.01-15.652-13.243-16.571z"/><path d="m483.214 298.508c-8.264.588-14.486 7.763-13.898 16.026l.068.948c.563 7.901 7.146 13.935 14.946 13.935.357 0 .719-.013 1.081-.039 8.264-.588 14.485-7.764 13.896-16.027l-.068-.945c-.587-8.263-7.772-14.483-16.025-13.898z"/><path d="m471.725 241.733c-8.065 1.892-13.07 9.963-11.179 18.029l.217.924c1.621 6.914 7.784 11.578 14.591 11.578 1.134 0 2.286-.129 3.438-.4 8.065-1.892 13.07-9.963 11.179-18.029l-.217-.924c-1.892-8.065-9.964-13.073-18.029-11.178z"/><path d="m474.448 196.552c-2.15-8.001-10.382-12.742-18.379-10.592-8.001 2.15-12.743 10.379-10.592 18.38l.258.954c1.813 6.679 7.863 11.073 14.467 11.073 1.301 0 2.624-.171 3.939-.528 7.995-2.171 12.716-10.412 10.545-18.407z"/><path d="m433.962 146.111c.769 7.741 7.291 13.52 14.909 13.52.495 0 .995-.024 1.499-.074 8.243-.818 14.264-8.164 13.445-16.408l-.082-.852c-.767-8.248-8.069-14.316-16.323-13.548-8.248.766-14.314 8.074-13.548 16.323z"/><path d="m447.792 101.725c.534.056 1.064.083 1.591.083 7.578 0 14.087-5.724 14.898-13.428l.1-.942c.87-8.239-5.104-15.623-13.342-16.492-8.219-.868-15.622 5.103-16.492 13.342l-.1.947c-.869 8.238 5.105 15.621 13.345 16.49z"/><path d="m456.018 44.362c1.205.297 2.411.438 3.599.438 6.741 0 12.869-4.578 14.553-11.417l.119-.488c1.981-8.044-2.934-16.17-10.978-18.151-8.045-1.982-16.171 2.935-18.151 10.979l-.119.488c-1.982 8.044 2.933 16.17 10.977 18.151z"/><path d="m29.019 387.214c7.523 0 14.018-5.67 14.894-13.324l.105-.933c.919-8.233-5.01-15.652-13.243-16.571-8.233-.926-15.653 5.01-16.571 13.243l-.097.852-.006.054c-.941 8.23 4.971 15.639 13.201 16.581.577.066 1.15.098 1.717.098z"/></g></svg>