<svg id="Layer_1" enable-background="new 0 0 512.006 512.006" height="512" viewBox="0 0 512.006 512.006" width="512" xmlns="http://www.w3.org/2000/svg"><g><path d="m459.53 253.087c-17.492-61.788-35.58-125.681-14.852-235.298 1.539-8.14-3.812-15.986-11.952-17.525-8.139-1.54-15.987 3.811-17.526 11.951-22.041 116.563-2.116 186.946 15.464 249.044 6.092 21.518 12.043 42.566 16.139 64.943h-381.601c4.096-22.378 10.047-43.426 16.139-64.944 17.56-62.024 37.462-132.325 15.539-248.647-1.533-8.141-9.374-13.492-17.518-11.962-8.141 1.534-13.497 9.377-11.962 17.518 20.615 109.386 2.548 173.203-14.924 234.919-16.259 57.435-31.617 111.683-16.695 195.131 3.431 19.19 6.688 35.506 11.429 52.76 1.83 6.658 7.869 11.029 14.455 11.029 1.316 0 2.653-.175 3.983-.54 7.988-2.195 12.684-10.45 10.489-18.438-4.455-16.212-7.445-31.186-10.826-50.092-2.639-14.758-4.225-28.558-4.972-41.62 73.338 3.658 132.551 28.366 180.663 75.413v20.273c0 8.284 6.716 15 15 15s15-6.716 15-15v-20.058c46.215-42.934 105.554-68.87 180.833-79.007-.653 14.056-2.274 28.961-5.142 44.999-3.379 18.9-6.369 33.872-10.826 50.091-2.195 7.988 2.501 16.243 10.489 18.438 1.331.365 2.667.54 3.983.54 6.585 0 12.625-4.372 14.455-11.029 4.743-17.261 8-33.575 11.429-52.76 14.924-83.447-.433-137.695-16.693-195.129zm-8.592 103.116c.342 3.778.617 7.609.821 11.5-80.455 10.204-144.668 37.155-195.498 82.11-52.88-49.226-117.251-74.958-196.186-78.539.208-5.126.548-10.142.994-15.071z"/><path d="m289.498 302.505c.501 0 1.008-.025 1.517-.076l1.037-.106c8.24-.853 14.229-8.225 13.375-16.465s-8.225-14.235-16.465-13.375l-.945.097c-8.243.828-14.254 8.181-13.426 16.424.777 7.733 7.296 13.501 14.907 13.501z"/><path d="m226.341 300.397 1.032.164c.791.124 1.576.185 2.352.185 7.255 0 13.634-5.275 14.799-12.668 1.289-8.184-4.3-15.862-12.483-17.151l-.939-.148c-8.188-1.319-15.876 4.251-17.19 12.43s4.25 15.874 12.429 17.188z"/><path d="m348.625 288.284c1.854 0 3.739-.346 5.566-1.077l.988-.397c7.678-3.109 11.382-11.855 8.271-19.534-3.111-7.678-11.858-11.383-19.534-8.271l-.867.349c-7.692 3.076-11.433 11.806-8.356 19.498 2.346 5.863 7.978 9.432 13.932 9.432z"/><path d="m164.334 283.004 1.023.421c1.854.756 3.771 1.113 5.656 1.113 5.917 0 11.525-3.525 13.896-9.343 3.126-7.671-.558-16.425-8.229-19.552l-.827-.339c-7.649-3.182-16.428.441-19.61 8.09-3.181 7.65.441 16.43 8.091 19.61z"/><path d="m400.275 256.467c3.646 0 7.303-1.321 10.189-3.995l.789-.734c6.049-5.66 6.364-15.152.704-21.201-5.661-6.05-15.152-6.362-21.202-.704l-.675.63c-6.078 5.629-6.442 15.119-.813 21.197 2.955 3.192 6.975 4.807 11.008 4.807z"/><path d="m107.266 251.66c2.956 3.192 6.977 4.808 11.009 4.808 3.646 0 7.303-1.321 10.189-3.995l.789-.734c6.049-5.66 6.364-15.152.704-21.201-5.661-6.05-15.152-6.362-21.202-.704l-.675.63c-6.079 5.627-6.443 15.118-.814 21.196z"/></g></svg>